<?xml version="1.0" encoding="utf-8"?>
<!-- Generator: Adobe Illustrator 27.5.0, SVG Export Plug-In . SVG Version: 6.00 Build 0)  -->
<svg version="1.1" id="Capa_1" xmlns="http://www.w3.org/2000/svg" xmlns:xlink="http://www.w3.org/1999/xlink" x="0px" y="0px"
	 viewBox="0 0 2372 1898" style="enable-background:new 0 0 2372 1898;" xml:space="preserve">
<g>
	<g>
		<path style="fill:#421F35;" d="M845.219,866.037c-0.499-0.578-1.212-0.927-1.974-0.959c-0.798-0.12-1.504,0.234-2.057,0.762
			l-42.795,40.69c-1.073,1.018-1.16,2.702-0.199,3.83c10.584,12.397,20.386,25.59,29.213,39.323l-20.383-8.727
			c-0.681-0.283-1.449-0.305-2.135-0.022c-0.686,0.272-1.237,0.812-1.525,1.493l-88.746,207.417
			c-0.291,0.676-0.302,1.444-0.027,2.13c0.276,0.686,0.814,1.236,1.493,1.531l38.272,16.374c0.259,0.109,0.534,0.18,0.814,0.207
			l20.571,2.103c0.095,0.011,0.191,0.016,0.283,0.016c1.108,0,2.122-0.659,2.563-1.694l35.948-84.023
			c0.577-1.345,0.013-2.909-1.293-3.579l-8.438-4.314c-0.812-0.409-1.787-0.398-2.598,0.032c-2.533,1.373-5.407,2.097-8.307,2.097
			c-9.614,0-17.434-7.822-17.434-17.431c0-9.614,7.82-17.437,17.434-17.437c8.617,0,15.857,6.166,17.216,14.659
			c0.139,0.877,0.692,1.634,1.482,2.043l7.332,3.753c0.686,0.344,1.487,0.398,2.22,0.142c0.727-0.267,1.313-0.817,1.615-1.531
			l29.178-68.193c14.252,31.675,23.812,65.17,28.434,99.667c0.123,0.904,0.681,1.694,1.495,2.114l61.866,31.648
			c0.883,0.441,1.937,0.409,2.773-0.136c0.833-0.534,1.324-1.471,1.282-2.456C944.959,1031.571,908.177,938.691,845.219,866.037z"/>
		<path style="fill:#421F35;" d="M1848.662,718.838c-50.898,0-100.686,8.885-147.984,26.402c-0.708,0.262-1.28,0.801-1.585,1.498
			c-0.305,0.692-0.31,1.476-0.022,2.179l22.465,54.591c0.566,1.383,2.113,2.076,3.53,1.558
			c39.546-14.392,81.13-21.685,123.596-21.685c199.361,0,361.551,162.163,361.551,361.485
			c0,199.362-162.189,361.551-361.551,361.551c-199.329,0-361.491-162.189-361.491-361.551
			c0-138.483,80.792-266.579,205.827-326.334c1.334-0.638,1.939-2.212,1.372-3.579l-22.48-54.625
			c-0.289-0.703-0.855-1.258-1.563-1.536c-0.719-0.272-1.514-0.256-2.196,0.071c-149.176,69.871-245.564,221.389-245.564,386.003
			c0,234.947,191.147,426.094,426.095,426.094s426.094-191.147,426.094-426.094C2274.756,909.952,2083.609,718.838,1848.662,718.838
			z"/>
		<path style="fill:#421F35;" d="M885.372,1183.367l58.666,5.981c0.095,0.011,0.188,0.016,0.283,0.016
			c0.64,0,1.266-0.224,1.768-0.632c0.572-0.469,0.937-1.15,1.007-1.885c1.054-10.813,1.708-21.816,1.942-32.705
			c0.022-1.068-0.567-2.053-1.52-2.543l-59.472-30.422c-0.894-0.452-1.956-0.403-2.792,0.147c-0.839,0.545-1.318,1.498-1.261,2.495
			c0.4,6.962,0.602,14.043,0.602,21.048c0,11.826-0.578,23.755-1.716,35.456C882.73,1181.853,883.844,1183.215,885.372,1183.367z"/>
		<path style="fill:#421F35;" d="M943.162,1210.968c-0.466-0.61-1.166-0.997-1.928-1.073l-58.786-5.997
			c-1.449-0.191-2.786,0.855-3.032,2.304c-29.72,173.956-179.596,300.216-356.37,300.216
			c-199.326,0-361.488-162.189-361.488-361.551c0-199.323,162.162-361.485,361.488-361.485c97.559,0,189.008,38.261,257.504,107.74
			c1.068,1.089,2.806,1.117,3.908,0.066l42.744-40.642c0.539-0.512,0.852-1.226,0.866-1.972c0.013-0.746-0.275-1.471-0.798-2.005
			c-80.795-82.367-188.837-127.731-304.225-127.731c-234.948,0-426.092,191.114-426.092,426.029
			c0,234.947,191.144,426.094,426.092,426.094c101.887,0,200.486-36.524,277.631-102.837
			c76.326-65.611,127.121-156.176,143.026-255.015C943.826,1212.352,943.629,1211.578,943.162,1210.968z"/>
		<path style="fill:#421F35;" d="M1539.573,424.276l24.022,62.027c0.425,1.106,1.482,1.782,2.599,1.782
			c0.338,0,0.675-0.06,1.007-0.191l18.542-7.179c0.687-0.267,1.242-0.795,1.542-1.471c0.299-0.676,0.316-1.444,0.049-2.135
			l-19.67-50.795c12.534-2.664,23.619-10.023,30.984-20.623l2.043,0.158c5.6,22.219,25.869,38.136,48.981,38.136
			c27.851,0,50.506-22.655,50.506-50.506c0-27.851-22.655-50.506-50.506-50.506c-14.686,0-28.472,6.298-38.087,17.338l-7.146-1.149
			c-7.37-19.664-26.168-32.757-47.298-32.757c-27.852,0-50.506,22.658-50.506,50.504
			C1506.633,398.086,1519.816,416.955,1539.573,424.276z"/>
		<path style="fill:#421F35;" d="M971.372,1212.967l-23.064-2.353c-1.432-0.147-2.802,0.871-3.037,2.331
			c-3.756,23.483-9.514,46.775-17.121,69.223c-0.237,0.697-0.185,1.465,0.142,2.13c0.327,0.659,0.904,1.166,1.607,1.406
			l21.922,7.424c0.289,0.098,0.591,0.147,0.894,0.147c0.424,0,0.847-0.098,1.236-0.289c0.662-0.327,1.169-0.904,1.406-1.607
			c8.266-24.403,14.484-49.711,18.487-75.209c0.117-0.757-0.079-1.525-0.547-2.135
			C972.829,1213.43,972.135,1213.044,971.372,1212.967z"/>
		<path style="fill:#421F35;" d="M977.214,1166.792l-22.684-11.603c-0.844-0.43-1.863-0.392-2.691,0.082
			c-0.822,0.49-1.337,1.367-1.367,2.321c-0.283,9.772-0.912,19.675-1.866,29.431c-0.15,1.531,0.964,2.892,2.492,3.045l23.028,2.348
			c0.095,0.011,0.188,0.016,0.283,0.016c0.64,0,1.267-0.224,1.768-0.632c0.572-0.469,0.937-1.149,1.008-1.885
			c0.661-6.771,1.182-13.667,1.547-20.492C978.789,1168.322,978.195,1167.293,977.214,1166.792z"/>
		<path style="fill:#421F35;" d="M175.257,853.781c4.954,4.205,11.036,6.275,17.107,6.275c7.125,0,14.239-2.849,19.509-8.443
			c80.468-85.352,193.886-134.3,311.175-134.3c115.641,0,224.042,45.604,305.235,128.412c1.068,1.095,2.808,1.117,3.914,0.071
			l16.767-15.939c0.539-0.512,0.852-1.225,0.866-1.972c0.014-0.746-0.272-1.465-0.795-1.999
			c-86.673-88.532-202.445-137.291-325.986-137.291c-134.27,0-261.151,58.775-348.115,161.258c-0.479,0.561-0.713,1.291-0.654,2.032
			C174.342,852.62,174.691,853.307,175.257,853.781z"/>
		<path style="fill:#421F35;" d="M865.022,844.368c-0.76-0.136-1.504,0.234-2.054,0.762l-16.777,15.95
			c-1.079,1.03-1.16,2.724-0.182,3.851c64.326,74.092,101.418,168.753,104.441,266.536c0.033,1.013,0.613,1.934,1.52,2.397
			l23.346,11.946c0.398,0.201,0.833,0.305,1.269,0.305c0.507,0,1.013-0.136,1.46-0.414c0.828-0.507,1.331-1.411,1.329-2.386
			c-0.365-109.504-40.277-215.337-112.381-297.998C866.492,844.744,865.781,844.401,865.022,844.368z"/>
		<path style="fill:#421F35;" d="M1681.88,704.92c-0.305,0.692-0.311,1.476-0.022,2.173l13.22,32.117
			c0.441,1.073,1.476,1.726,2.577,1.726c0.321,0,0.654-0.054,0.975-0.174c37.471-13.95,76.74-22.579,116.722-25.651
			c20.242-1.552,36.099-18.586,36.099-38.773c0-1.542-1.248-2.789-2.789-2.789c-56.814,0-112.397,10.05-165.208,29.872
			C1682.746,703.684,1682.179,704.229,1681.88,704.92z"/>
		<path style="fill:#421F35;" d="M1417.572,1144.867c0-166.52,97.717-319.852,248.941-390.633c1.351-0.632,1.966-2.212,1.395-3.589
			l-13.226-32.128c-0.288-0.703-0.849-1.258-1.558-1.536c-0.724-0.278-1.509-0.256-2.19,0.071
			c-166.242,77.11-273.655,245.041-273.655,427.815c0,73.935,16.641,144.732,49.46,210.414c0.49,0.975,1.476,1.542,2.494,1.542
			c0.42,0,0.845-0.093,1.248-0.294c18.057-9.021,26.206-30.825,18.542-49.635C1428.156,1255.64,1417.572,1201.125,1417.572,1144.867
			z"/>
		<path style="fill:#5FACA6;" d="M1848.694,1067.43c-4.919,0-9.854,0.463-14.669,1.384l-243.936-592.773
			c-0.06-0.142-0.212-0.207-0.354-0.158l-32.699,12.659c-0.066,0.027-0.125,0.082-0.153,0.152c-0.027,0.066-0.033,0.147,0,0.212
			l13.171,32.013L942.107,737.097c-0.038,0.011-0.074,0.032-0.104,0.06l-3.154,2.996l-45.636-164.668
			c-0.039-0.131-0.175-0.229-0.305-0.201c-1.228,0.158-2.454,0.305-3.685,0.447c-7.642,0.887-15.344,1.568-22.894,2.037
			c-0.085,0.006-0.161,0.049-0.21,0.114c-0.049,0.071-0.066,0.158-0.044,0.24l50.716,183.008L568.78,1092.024
			c-12.697-10.987-28.927-17.033-45.732-17.033c-38.55,0-69.909,31.359-69.909,69.909c0,38.55,31.359,69.909,69.909,69.909
			c26.408,0,50.253-14.599,62.277-38.12l412.82,42.09c2.753,16.015,11.107,30.662,23.537,41.273
			c12.624,10.775,28.731,16.707,45.353,16.707c22.127,0,42.452-10.127,55.804-27.797l51.933,29.921
			c0.041,0.027,0.09,0.038,0.139,0.038h0.003l45.77-0.631c0.128,0,0.234-0.088,0.267-0.207c0.033-0.12-0.022-0.251-0.13-0.311
			l-87.019-50.142c2.086-6.711,3.143-13.699,3.143-20.781c0-12.207-3.192-24.218-9.236-34.747l473.765-574.824l200.064,486.15
			c-19.272,14.8-30.319,37.193-30.319,61.471c0,42.717,34.753,77.47,77.475,77.47c42.717,0,77.47-34.753,77.47-77.47
			S1891.411,1067.43,1848.694,1067.43z M1013.501,1161.895l-199.38-102.004c-1.656-9.914-10.137-17.099-20.223-17.099
			c-11.306,0-20.5,9.195-20.5,20.503c0,11.303,9.195,20.498,20.5,20.498c3.361,0,6.689-0.828,9.639-2.397l197.901,101.236
			c-1.106,2.996-2.013,6.095-2.694,9.211l-406.011-41.399c0.147-1.863,0.221-3.726,0.221-5.545c0-11.14-2.539-21.778-7.544-31.626
			l339.509-322.816l99.942,360.636C1020.697,1154.247,1016.875,1157.88,1013.501,1161.895z M1075.977,1137.513
			c-8.854-1.144-17.956-0.567-26.55,1.667L946.975,769.486l9.342-8.885l600.752-206.808L1075.977,1137.513z"/>
		<path style="fill:#421F35;" d="M1333.037,1274.482c-0.534-0.517-1.4-1.024-1.982-0.79l-233.09,3.23
			c-1.542,0.022-2.773,1.286-2.751,2.827l0.613,44.285c0.01,0.741,0.313,1.443,0.844,1.961c0.52,0.506,1.217,0.79,1.944,0.79
			c0.013,0,0.025,0,0.038,0l233.087-3.23c1.542-0.022,2.773-1.286,2.751-2.827l-0.61-44.286
			C1333.871,1275.702,1333.566,1275,1333.037,1274.482z"/>
		<path style="fill:#421F35;" d="M1003.061,453.462c-17.392-3.23-35.096-2.315-52.214-1.438
			c-17.382,0.882-35.352,1.814-52.677-1.689c-20.336-4.107-40.475-10.573-59.951-16.826c-17.036-5.469-34.652-11.123-52.44-15.225
			c-14.819-3.421-31.724-3.916-47.597-1.394c-24.763,3.938-43.997,14.56-54.156,29.9c-8.462,12.779-10.507,28.303-6.082,46.137
			c5.363,21.604,20.457,42.21,41.415,56.542c31.237,21.347,72.614,32.117,123.237,32.117c7.759,0,15.734-0.251,23.921-0.758
			c7.604-0.469,15.364-1.16,23.058-2.048l3.715-0.452c26.795-3.339,53.513-9.347,79.352-15.154l7.583-1.7
			c27.939-6.248,78.431-29.093,69.558-70.824C1045.116,468.725,1021.696,456.91,1003.061,453.462z"/>
	</g>
	<g>
		<path style="fill:#421F35;" d="M1560.751,567.461c-0.6-0.479-1.471-0.375-1.961,0.218l-242.012,303.086
			c-0.479,0.605-0.381,1.482,0.218,1.961c0.256,0.207,0.566,0.305,0.871,0.305c0.409,0,0.812-0.18,1.089-0.523l242.012-303.086
			C1561.448,568.817,1561.35,567.94,1560.751,567.461z"/>
		<path style="fill:#421F35;" d="M1591.664,534.587c-0.3-0.713-1.117-1.057-1.82-0.752c-0.713,0.295-1.051,1.111-0.752,1.82
			l79.344,190.455c0.224,0.539,0.741,0.861,1.286,0.861c0.18,0,0.36-0.032,0.534-0.109c0.714-0.294,1.052-1.111,0.752-1.82
			L1591.664,534.587z"/>
		<path style="fill:#421F35;" d="M1469.577,703.727c-0.616-0.457-1.493-0.327-1.95,0.294l-54.232,73.7
			c-0.457,0.621-0.327,1.492,0.294,1.95c0.251,0.185,0.539,0.272,0.828,0.272c0.425,0,0.849-0.196,1.122-0.567l54.232-73.7
			C1470.328,705.056,1470.197,704.185,1469.577,703.727z"/>
		<path style="fill:#421F35;" d="M1653.097,667.117c0.218,0.55,0.741,0.882,1.297,0.882c0.168,0,0.343-0.033,0.512-0.098
			c0.719-0.283,1.068-1.095,0.784-1.808l-29.203-73.7c-0.283-0.719-1.084-1.068-1.808-0.785c-0.719,0.283-1.068,1.095-0.784,1.809
			L1653.097,667.117z"/>
		<path style="fill:#421F35;" d="M545.953,1104.035c-0.692-0.321-1.525-0.011-1.844,0.697c-0.316,0.703-0.003,1.526,0.7,1.841
			c8.149,3.677,14.849,11.347,17.921,20.514c2.838,8.471,2.767,18.363-0.199,27.846c-0.229,0.736,0.18,1.514,0.915,1.743
			c0.139,0.043,0.281,0.066,0.417,0.066c0.594,0,1.143-0.381,1.331-0.981c3.14-10.039,3.203-20.536,0.177-29.557
			C562.061,1116.307,554.8,1108.022,545.953,1104.035z"/>
		<path style="fill:#421F35;" d="M555.696,1177.136c-14.285,6.646-29.741,8.28-43.495,4.63
			c-14.74-3.927-27.337-14.446-32.877-27.459c-5.948-13.977-3.617-30.602,5.799-41.371c0.509-0.583,0.449-1.465-0.131-1.972
			c-0.577-0.495-1.457-0.436-1.966,0.131c-10.107,11.558-12.627,29.365-6.267,44.301c5.956,13.999,18.937,24.861,34.723,29.061
			c5.036,1.34,10.278,2.005,15.609,2.005c9.909,0,20.111-2.294,29.782-6.798c0.697-0.327,1.002-1.155,0.675-1.852
			C557.223,1177.114,556.398,1176.82,555.696,1177.136z"/>
		<path style="fill:#421F35;" d="M1043.632,1241.336c-8.253-3.437-15.171-10.911-18.504-19.991
			c-3.086-8.389-3.298-18.27-0.605-27.835c0.207-0.741-0.223-1.509-0.964-1.716c-0.763-0.234-1.512,0.224-1.721,0.964
			c-2.852,10.12-2.614,20.618,0.67,29.546c3.601,9.805,11.096,17.877,20.051,21.603c0.177,0.076,0.357,0.109,0.537,0.109
			c0.544,0,1.065-0.321,1.288-0.861C1044.678,1242.448,1044.343,1241.63,1043.632,1241.336z"/>
		<path style="fill:#421F35;" d="M1074.703,1162.527c-14.503-3.41-30.567-1.248-45.233,6.1c-0.689,0.349-0.967,1.182-0.624,1.874
			c0.346,0.687,1.193,0.948,1.871,0.621c14.081-7.059,29.472-9.151,43.349-5.883c14.844,3.497,27.737,13.656,33.65,26.506
			c6.349,13.798,4.497,30.483-4.605,41.519c-0.49,0.594-0.406,1.476,0.187,1.966c0.262,0.213,0.575,0.316,0.888,0.316
			c0.401,0,0.801-0.174,1.076-0.506c9.77-11.848,11.774-29.715,4.987-44.46C1103.891,1176.76,1090.603,1166.274,1074.703,1162.527z"
			/>
		<path style="fill:#421F35;" d="M1867.688,1187.409c-20.737,8.144-46.601,0.948-60.175-16.718
			c-13.569-17.67-13.835-44.52-0.626-62.452c0.458-0.621,0.327-1.492-0.294-1.95c-0.616-0.457-1.487-0.321-1.95,0.295
			c-13.923,18.901-13.64,47.188,0.659,65.807c10.328,13.444,27.422,21.13,44.346,21.13c6.509,0,12.997-1.138,19.065-3.519
			c0.714-0.278,1.068-1.089,0.784-1.808C1869.219,1187.48,1868.407,1187.131,1867.688,1187.409z"/>
		<path style="fill:#421F35;" d="M1871.915,1124.222c-4.897-7.681-13.297-13.215-23.047-15.193c-0.725-0.109-1.487,0.338-1.645,1.09
			c-0.153,0.757,0.337,1.492,1.089,1.645c9.015,1.824,16.761,6.912,21.249,13.961c4.805,7.533,5.48,17.186,1.732,24.594
			c-0.349,0.686-0.076,1.531,0.61,1.874c0.201,0.104,0.419,0.153,0.632,0.153c0.506,0,0.997-0.278,1.242-0.763
			C1877.967,1143.314,1877.237,1132.572,1871.915,1124.222z"/>
		<path style="fill:#421F35;" d="M1095.968,1141.882c0.253,0.196,0.553,0.288,0.849,0.288c0.417,0,0.831-0.185,1.106-0.544
			l20.874-27.105c0.468-0.61,0.354-1.487-0.256-1.956c-0.607-0.474-1.485-0.359-1.956,0.256l-20.874,27.105
			C1095.244,1140.536,1095.358,1141.413,1095.968,1141.882z"/>
		<path style="fill:#421F35;" d="M1136.585,1127.839c-0.602-0.474-1.479-0.365-1.958,0.234
			c-5.918,7.544-12.648,14.479-19.996,20.606c-0.591,0.496-0.67,1.373-0.177,1.967c0.276,0.332,0.673,0.501,1.07,0.501
			c0.316,0,0.632-0.103,0.894-0.321c7.498-6.259,14.364-13.334,20.405-21.031C1137.296,1129.19,1137.192,1128.313,1136.585,1127.839
			z"/>
		<path style="fill:#421F35;" d="M1035.014,1136.903c0.169,0.621,0.73,1.03,1.346,1.03c0.119,0,0.242-0.016,0.365-0.049
			c0.743-0.201,1.182-0.964,0.981-1.71l-9.04-33.375c-0.202-0.741-0.95-1.182-1.711-0.981c-0.744,0.201-1.182,0.964-0.981,1.71
			L1035.014,1136.903z"/>
		<path style="fill:#421F35;" d="M988.994,1199.485c-9.418-0.011-18.967-0.528-28.385-1.536c-0.706-0.076-1.452,0.469-1.533,1.242
			c-0.082,0.762,0.471,1.454,1.239,1.536c9.513,1.013,19.16,1.536,28.674,1.547c0.003,0,0.003,0,0.003,0
			c0.768,0,1.395-0.621,1.395-1.395C990.386,1200.112,989.762,1199.485,988.994,1199.485z"/>
		<path style="fill:#421F35;" d="M917.78,720.26c-0.21-0.741-0.978-1.176-1.724-0.959c-0.741,0.213-1.169,0.986-0.956,1.721
			c11.03,38.533,22.573,77.492,34.304,115.796c0.185,0.599,0.738,0.986,1.335,0.986c0.133,0,0.272-0.022,0.408-0.06
			c0.735-0.229,1.15-1.008,0.926-1.743C940.342,797.713,928.805,758.771,917.78,720.26z"/>
		<path style="fill:#421F35;" d="M942.508,783.071c0.193,0.589,0.738,0.964,1.327,0.964c0.144,0,0.288-0.022,0.433-0.071
			c0.733-0.234,1.13-1.024,0.894-1.754l-10.429-31.985c-0.239-0.73-1.005-1.144-1.759-0.894c-0.73,0.234-1.13,1.024-0.894,1.754
			L942.508,783.071z"/>
	</g>
</g>
</svg>
